{
    "asset" : {
        "generator" : "Khronos glTF Blender I/O v1.7.33",
        "version" : "2.0"
    },
    "scene" : 0,
    "scenes" : [
        {
            "name" : "Scene",
            "nodes" : [
                0
            ]
        }
    ],
    "nodes" : [
        {
            "mesh" : 0,
            "name" : "Solid.001"
        }
    ],
    "materials" : [
        {
            "doubleSided" : true,
            "name" : "Bianco",
            "pbrMetallicRoughness" : {}
        },
        {
            "doubleSided" : true,
            "name" : "Nero.001",
            "pbrMetallicRoughness" : {}
        }
    ],
    "meshes" : [
        {
            "name" : "Solid.001",
            "primitives" : [
                {
                    "attributes" : {
                        "POSITION" : 0,
                        "NORMAL" : 1
                    },
                    "indices" : 2,
                    "material" : 0
                },
                {
                    "attributes" : {
                        "POSITION" : 3,
                        "NORMAL" : 4
                    },
                    "indices" : 5,
                    "material" : 1
                }
            ]
        }
    ],
    "accessors" : [
        {
            "bufferView" : 0,
            "componentType" : 5126,
            "count" : 10880,
            "max" : [
                1.0063400268554688,
                1.0063401460647583,
                1.0063400268554688
            ],
            "min" : [
                -1.0063401460647583,
                -1.0063400268554688,
                -1.0063400268554688
            ],
            "type" : "VEC3"
        },
        {
            "bufferView" : 1,
            "componentType" : 5126,
            "count" : 10880,
            "type" : "VEC3"
        },
        {
            "bufferView" : 2,
            "componentType" : 5123,
            "count" : 65160,
            "type" : "SCALAR"
        },
        {
            "bufferView" : 3,
            "componentType" : 5126,
            "count" : 5472,
            "max" : [
                0.9998819231987,
                0.9998819231987,
                0.9998819231987
            ],
            "min" : [
                -0.9998819231987,
                -0.9998819231987,
                -0.9998819231987
            ],
            "type" : "VEC3"
        },
        {
            "bufferView" : 4,
            "componentType" : 5126,
            "count" : 5472,
            "type" : "VEC3"
        },
        {
            "bufferView" : 5,
            "componentType" : 5123,
            "count" : 32580,
            "type" : "SCALAR"
        }
    ],
    "bufferViews" : [
        {
            "buffer" : 0,
            "byteLength" : 130560,
            "byteOffset" : 0
        },
        {
            "buffer" : 0,
            "byteLength" : 130560,
            "byteOffset" : 130560
        },
        {
            "buffer" : 0,
            "byteLength" : 130320,
            "byteOffset" : 261120
        },
        {
            "buffer" : 0,
            "byteLength" : 65664,
            "byteOffset" : 391440
        },
        {
            "buffer" : 0,
            "byteLength" : 65664,
            "byteOffset" : 457104
        },
        {
            "buffer" : 0,
            "byteLength" : 65160,
            "byteOffset" : 522768
        }
    ],
    "buffers" : [
        {
            "byteLength" : 587928,
            "uri" : "SoccerBall.bin"
        }
    ]
}
