{
    "asset" : {
        "generator" : "Khronos glTF Blender I/O v1.7.33",
        "version" : "2.0"
    },
    "scene" : 0,
    "scenes" : [
        {
            "name" : "Scene",
            "nodes" : [
                0,
                1,
                2,
                3,
                4,
                5,
                6
            ]
        }
    ],
    "nodes" : [
        {
            "mesh" : 0,
            "name" : "Cylinder",
            "rotation" : [
                0.7071068286895752,
                0,
                0,
                0.7071067094802856
            ]
        },
        {
            "mesh" : 1,
            "name" : "Sphere.003_Sphere.002",
            "rotation" : [
                0.7071068286895752,
                0,
                0,
                0.7071067094802856
            ]
        },
        {
            "mesh" : 2,
            "name" : "Sphere.012_Sphere.009",
            "rotation" : [
                0.7071068286895752,
                0,
                0,
                0.7071067094802856
            ]
        },
        {
            "mesh" : 3,
            "name" : "Sphere.001_Sphere.013",
            "rotation" : [
                0.7071068286895752,
                0,
                0,
                0.7071067094802856
            ]
        },
        {
            "mesh" : 4,
            "name" : "Sphere.002_Sphere.014",
            "rotation" : [
                0.7071068286895752,
                0,
                0,
                0.7071067094802856
            ]
        },
        {
            "mesh" : 5,
            "name" : "Sphere.004_Sphere.015",
            "rotation" : [
                0.7071068286895752,
                0,
                0,
                0.7071067094802856
            ]
        },
        {
            "mesh" : 6,
            "name" : "Sphere.005_Sphere.016",
            "rotation" : [
                0.7071068286895752,
                0,
                0,
                0.7071067094802856
            ]
        }
    ],
    "materials" : [
        {
            "doubleSided" : true,
            "name" : "Material.001",
            "pbrMetallicRoughness" : {
                "baseColorFactor" : [
                    0.800000011920929,
                    0.800000011920929,
                    0.800000011920929,
                    1
                ],
                "metallicFactor" : 0,
                "roughnessFactor" : 0.5
            }
        },
        {
            "doubleSided" : true,
            "name" : "Material.004",
            "pbrMetallicRoughness" : {
                "baseColorFactor" : [
                    0.800000011920929,
                    0.800000011920929,
                    0.800000011920929,
                    1
                ],
                "metallicFactor" : 0,
                "roughnessFactor" : 0.5
            }
        },
        {
            "doubleSided" : true,
            "name" : "Material.002",
            "pbrMetallicRoughness" : {
                "baseColorFactor" : [
                    0.800000011920929,
                    0.800000011920929,
                    0.800000011920929,
                    1
                ],
                "metallicFactor" : 0,
                "roughnessFactor" : 0.5
            }
        }
    ],
    "meshes" : [
        {
            "name" : "Cylinder",
            "primitives" : [
                {
                    "attributes" : {
                        "POSITION" : 0,
                        "NORMAL" : 1,
                        "TEXCOORD_0" : 2
                    },
                    "indices" : 3,
                    "material" : 0
                }
            ]
        },
        {
            "name" : "Sphere.003_Sphere.002",
            "primitives" : [
                {
                    "attributes" : {
                        "POSITION" : 4,
                        "NORMAL" : 5,
                        "TEXCOORD_0" : 6
                    },
                    "indices" : 7,
                    "material" : 1
                }
            ]
        },
        {
            "name" : "Sphere.012_Sphere.009",
            "primitives" : [
                {
                    "attributes" : {
                        "POSITION" : 8,
                        "NORMAL" : 9,
                        "TEXCOORD_0" : 10
                    },
                    "indices" : 11,
                    "material" : 2
                }
            ]
        },
        {
            "name" : "Sphere.001_Sphere.013",
            "primitives" : [
                {
                    "attributes" : {
                        "POSITION" : 12,
                        "NORMAL" : 13,
                        "TEXCOORD_0" : 14
                    },
                    "indices" : 15,
                    "material" : 1
                }
            ]
        },
        {
            "name" : "Sphere.002_Sphere.014",
            "primitives" : [
                {
                    "attributes" : {
                        "POSITION" : 16,
                        "NORMAL" : 17,
                        "TEXCOORD_0" : 18
                    },
                    "indices" : 19,
                    "material" : 2
                }
            ]
        },
        {
            "name" : "Sphere.004_Sphere.015",
            "primitives" : [
                {
                    "attributes" : {
                        "POSITION" : 20,
                        "NORMAL" : 21,
                        "TEXCOORD_0" : 22
                    },
                    "indices" : 23,
                    "material" : 1
                }
            ]
        },
        {
            "name" : "Sphere.005_Sphere.016",
            "primitives" : [
                {
                    "attributes" : {
                        "POSITION" : 24,
                        "NORMAL" : 25,
                        "TEXCOORD_0" : 26
                    },
                    "indices" : 27,
                    "material" : 2
                }
            ]
        }
    ],
    "accessors" : [
        {
            "bufferView" : 0,
            "componentType" : 5126,
            "count" : 1467,
            "max" : [
                2.6425530910491943,
                4.428370952606201,
                0.25779399275779724
            ],
            "min" : [
                1.4981169700622559,
                -4.515675067901611,
                -26.86419677734375
            ],
            "type" : "VEC3"
        },
        {
            "bufferView" : 1,
            "componentType" : 5126,
            "count" : 1467,
            "type" : "VEC3"
        },
        {
            "bufferView" : 2,
            "componentType" : 5126,
            "count" : 1467,
            "type" : "VEC2"
        },
        {
            "bufferView" : 3,
            "componentType" : 5123,
            "count" : 3540,
            "type" : "SCALAR"
        },
        {
            "bufferView" : 4,
            "componentType" : 5126,
            "count" : 12475,
            "max" : [
                3.6129310131073,
                4.289157867431641,
                -20.750261306762695
            ],
            "min" : [
                2.657978057861328,
                -4.384779930114746,
                -22.165620803833008
            ],
            "type" : "VEC3"
        },
        {
            "bufferView" : 5,
            "componentType" : 5126,
            "count" : 12475,
            "type" : "VEC3"
        },
        {
            "bufferView" : 6,
            "componentType" : 5126,
            "count" : 12475,
            "type" : "VEC2"
        },
        {
            "bufferView" : 7,
            "componentType" : 5123,
            "count" : 19380,
            "type" : "SCALAR"
        },
        {
            "bufferView" : 8,
            "componentType" : 5126,
            "count" : 26998,
            "max" : [
                3.6533141136169434,
                4.369361877441406,
                -20.71819496154785
            ],
            "min" : [
                2.2873339653015137,
                -4.496804237365723,
                -22.172090530395508
            ],
            "type" : "VEC3"
        },
        {
            "bufferView" : 9,
            "componentType" : 5126,
            "count" : 26998,
            "type" : "VEC3"
        },
        {
            "bufferView" : 10,
            "componentType" : 5126,
            "count" : 26998,
            "type" : "VEC2"
        },
        {
            "bufferView" : 11,
            "componentType" : 5123,
            "count" : 46920,
            "type" : "SCALAR"
        },
        {
            "bufferView" : 12,
            "componentType" : 5126,
            "count" : 12475,
            "max" : [
                3.6129310131073,
                4.289157867431641,
                -22.82845115661621
            ],
            "min" : [
                2.657978057861328,
                -4.384779930114746,
                -24.243810653686523
            ],
            "type" : "VEC3"
        },
        {
            "bufferView" : 13,
            "componentType" : 5126,
            "count" : 12475,
            "type" : "VEC3"
        },
        {
            "bufferView" : 14,
            "componentType" : 5126,
            "count" : 12475,
            "type" : "VEC2"
        },
        {
            "bufferView" : 15,
            "componentType" : 5123,
            "count" : 19380,
            "type" : "SCALAR"
        },
        {
            "bufferView" : 16,
            "componentType" : 5126,
            "count" : 26999,
            "max" : [
                3.6533141136169434,
                4.369361877441406,
                -22.796384811401367
            ],
            "min" : [
                2.2873339653015137,
                -4.496804237365723,
                -24.250280380249023
            ],
            "type" : "VEC3"
        },
        {
            "bufferView" : 17,
            "componentType" : 5126,
            "count" : 26999,
            "type" : "VEC3"
        },
        {
            "bufferView" : 18,
            "componentType" : 5126,
            "count" : 26999,
            "type" : "VEC2"
        },
        {
            "bufferView" : 19,
            "componentType" : 5123,
            "count" : 46920,
            "type" : "SCALAR"
        },
        {
            "bufferView" : 20,
            "componentType" : 5126,
            "count" : 12475,
            "max" : [
                3.6129310131073,
                4.289157867431641,
                -24.978689193725586
            ],
            "min" : [
                2.657978057861328,
                -4.384779930114746,
                -26.3940486907959
            ],
            "type" : "VEC3"
        },
        {
            "bufferView" : 21,
            "componentType" : 5126,
            "count" : 12475,
            "type" : "VEC3"
        },
        {
            "bufferView" : 22,
            "componentType" : 5126,
            "count" : 12475,
            "type" : "VEC2"
        },
        {
            "bufferView" : 23,
            "componentType" : 5123,
            "count" : 19380,
            "type" : "SCALAR"
        },
        {
            "bufferView" : 24,
            "componentType" : 5126,
            "count" : 26998,
            "max" : [
                3.6533141136169434,
                4.369361877441406,
                -24.946622848510742
            ],
            "min" : [
                2.2873339653015137,
                -4.496804237365723,
                -26.4005184173584
            ],
            "type" : "VEC3"
        },
        {
            "bufferView" : 25,
            "componentType" : 5126,
            "count" : 26998,
            "type" : "VEC3"
        },
        {
            "bufferView" : 26,
            "componentType" : 5126,
            "count" : 26998,
            "type" : "VEC2"
        },
        {
            "bufferView" : 27,
            "componentType" : 5123,
            "count" : 46920,
            "type" : "SCALAR"
        }
    ],
    "bufferViews" : [
        {
            "buffer" : 0,
            "byteLength" : 17604,
            "byteOffset" : 0
        },
        {
            "buffer" : 0,
            "byteLength" : 17604,
            "byteOffset" : 17604
        },
        {
            "buffer" : 0,
            "byteLength" : 11736,
            "byteOffset" : 35208
        },
        {
            "buffer" : 0,
            "byteLength" : 7080,
            "byteOffset" : 46944
        },
        {
            "buffer" : 0,
            "byteLength" : 149700,
            "byteOffset" : 54024
        },
        {
            "buffer" : 0,
            "byteLength" : 149700,
            "byteOffset" : 203724
        },
        {
            "buffer" : 0,
            "byteLength" : 99800,
            "byteOffset" : 353424
        },
        {
            "buffer" : 0,
            "byteLength" : 38760,
            "byteOffset" : 453224
        },
        {
            "buffer" : 0,
            "byteLength" : 323976,
            "byteOffset" : 491984
        },
        {
            "buffer" : 0,
            "byteLength" : 323976,
            "byteOffset" : 815960
        },
        {
            "buffer" : 0,
            "byteLength" : 215984,
            "byteOffset" : 1139936
        },
        {
            "buffer" : 0,
            "byteLength" : 93840,
            "byteOffset" : 1355920
        },
        {
            "buffer" : 0,
            "byteLength" : 149700,
            "byteOffset" : 1449760
        },
        {
            "buffer" : 0,
            "byteLength" : 149700,
            "byteOffset" : 1599460
        },
        {
            "buffer" : 0,
            "byteLength" : 99800,
            "byteOffset" : 1749160
        },
        {
            "buffer" : 0,
            "byteLength" : 38760,
            "byteOffset" : 1848960
        },
        {
            "buffer" : 0,
            "byteLength" : 323988,
            "byteOffset" : 1887720
        },
        {
            "buffer" : 0,
            "byteLength" : 323988,
            "byteOffset" : 2211708
        },
        {
            "buffer" : 0,
            "byteLength" : 215992,
            "byteOffset" : 2535696
        },
        {
            "buffer" : 0,
            "byteLength" : 93840,
            "byteOffset" : 2751688
        },
        {
            "buffer" : 0,
            "byteLength" : 149700,
            "byteOffset" : 2845528
        },
        {
            "buffer" : 0,
            "byteLength" : 149700,
            "byteOffset" : 2995228
        },
        {
            "buffer" : 0,
            "byteLength" : 99800,
            "byteOffset" : 3144928
        },
        {
            "buffer" : 0,
            "byteLength" : 38760,
            "byteOffset" : 3244728
        },
        {
            "buffer" : 0,
            "byteLength" : 323976,
            "byteOffset" : 3283488
        },
        {
            "buffer" : 0,
            "byteLength" : 323976,
            "byteOffset" : 3607464
        },
        {
            "buffer" : 0,
            "byteLength" : 215984,
            "byteOffset" : 3931440
        },
        {
            "buffer" : 0,
            "byteLength" : 93840,
            "byteOffset" : 4147424
        }
    ],
    "buffers" : [
        {
            "byteLength" : 4241264,
            "uri" : "stadium_light.bin"
        }
    ]
}
